<mxfile host="app.diagrams.net" agent="Mozilla/5.0 (Windows NT 10.0; Win64; x64; rv:134.0) Gecko/20100101 Firefox/134.0" version="26.0.6">
  <diagram name="Page-1" id="5pGx6LdyxHv3eUYSwTAf">
    <mxGraphModel grid="1" page="1" gridSize="10" guides="1" tooltips="1" connect="1" arrows="1" fold="1" pageScale="1" pageWidth="827" pageHeight="1169" math="0" shadow="0">
      <root>
        <mxCell id="0" />
        <mxCell id="1" parent="0" />
        <mxCell id="JLIKOMwXBY5YtS-6EEfw-1" value="Utilisateur" style="shape=umlActor;verticalLabelPosition=bottom;verticalAlign=top;html=1;outlineConnect=0;" vertex="1" parent="1">
          <mxGeometry x="110" y="270" width="30" height="60" as="geometry" />
        </mxCell>
        <mxCell id="JLIKOMwXBY5YtS-6EEfw-2" value="s&#39;inscrire pour utilisateur" style="ellipse;whiteSpace=wrap;html=1;" vertex="1" parent="1">
          <mxGeometry x="200" y="280" width="100" height="60" as="geometry" />
        </mxCell>
        <mxCell id="JLIKOMwXBY5YtS-6EEfw-3" value="adresse mail (obligatoire)" style="ellipse;whiteSpace=wrap;html=1;" vertex="1" parent="1">
          <mxGeometry x="350" y="300" width="120" height="80" as="geometry" />
        </mxCell>
        <mxCell id="JLIKOMwXBY5YtS-6EEfw-4" value="ligue (à choisir dans une liste)" style="ellipse;whiteSpace=wrap;html=1;" vertex="1" parent="1">
          <mxGeometry x="340" y="400" width="120" height="80" as="geometry" />
        </mxCell>
        <mxCell id="JLIKOMwXBY5YtS-6EEfw-5" value="mot de passe (obligatoire)" style="ellipse;whiteSpace=wrap;html=1;" vertex="1" parent="1">
          <mxGeometry x="340" y="190" width="120" height="80" as="geometry" />
        </mxCell>
        <mxCell id="JLIKOMwXBY5YtS-6EEfw-6" value="login/pseudo (obligatoire)" style="ellipse;whiteSpace=wrap;html=1;" vertex="1" parent="1">
          <mxGeometry x="340" y="80" width="120" height="80" as="geometry" />
        </mxCell>
        <mxCell id="JLIKOMwXBY5YtS-6EEfw-7" value="" style="endArrow=classic;html=1;rounded=0;entryX=0;entryY=0.5;entryDx=0;entryDy=0;exitX=0.5;exitY=0.5;exitDx=0;exitDy=0;exitPerimeter=0;" edge="1" parent="1" source="JLIKOMwXBY5YtS-6EEfw-1" target="JLIKOMwXBY5YtS-6EEfw-2">
          <mxGeometry width="50" height="50" relative="1" as="geometry">
            <mxPoint x="390" y="320" as="sourcePoint" />
            <mxPoint x="440" y="270" as="targetPoint" />
          </mxGeometry>
        </mxCell>
        <mxCell id="JLIKOMwXBY5YtS-6EEfw-8" value="" style="endArrow=classic;html=1;rounded=0;exitX=1;exitY=0.5;exitDx=0;exitDy=0;entryX=0;entryY=0.5;entryDx=0;entryDy=0;" edge="1" parent="1" source="JLIKOMwXBY5YtS-6EEfw-2" target="JLIKOMwXBY5YtS-6EEfw-6">
          <mxGeometry width="50" height="50" relative="1" as="geometry">
            <mxPoint x="390" y="320" as="sourcePoint" />
            <mxPoint x="440" y="270" as="targetPoint" />
          </mxGeometry>
        </mxCell>
        <mxCell id="JLIKOMwXBY5YtS-6EEfw-9" value="" style="endArrow=classic;html=1;rounded=0;exitX=1;exitY=0.5;exitDx=0;exitDy=0;entryX=0;entryY=0.5;entryDx=0;entryDy=0;" edge="1" parent="1" source="JLIKOMwXBY5YtS-6EEfw-2" target="JLIKOMwXBY5YtS-6EEfw-5">
          <mxGeometry width="50" height="50" relative="1" as="geometry">
            <mxPoint x="390" y="320" as="sourcePoint" />
            <mxPoint x="440" y="270" as="targetPoint" />
          </mxGeometry>
        </mxCell>
        <mxCell id="JLIKOMwXBY5YtS-6EEfw-10" value="" style="endArrow=classic;html=1;rounded=0;exitX=1;exitY=0.5;exitDx=0;exitDy=0;entryX=0;entryY=0.5;entryDx=0;entryDy=0;" edge="1" parent="1" source="JLIKOMwXBY5YtS-6EEfw-2" target="JLIKOMwXBY5YtS-6EEfw-3">
          <mxGeometry width="50" height="50" relative="1" as="geometry">
            <mxPoint x="390" y="320" as="sourcePoint" />
            <mxPoint x="440" y="270" as="targetPoint" />
          </mxGeometry>
        </mxCell>
        <mxCell id="JLIKOMwXBY5YtS-6EEfw-12" value="connection" style="ellipse;whiteSpace=wrap;html=1;" vertex="1" parent="1">
          <mxGeometry x="70" y="120" width="120" height="80" as="geometry" />
        </mxCell>
        <mxCell id="JLIKOMwXBY5YtS-6EEfw-13" value="" style="endArrow=classic;html=1;rounded=0;exitX=0.5;exitY=0.5;exitDx=0;exitDy=0;exitPerimeter=0;entryX=0.5;entryY=1;entryDx=0;entryDy=0;" edge="1" parent="1" source="JLIKOMwXBY5YtS-6EEfw-1" target="JLIKOMwXBY5YtS-6EEfw-12">
          <mxGeometry width="50" height="50" relative="1" as="geometry">
            <mxPoint x="360" y="320" as="sourcePoint" />
            <mxPoint x="410" y="270" as="targetPoint" />
          </mxGeometry>
        </mxCell>
        <mxCell id="JLIKOMwXBY5YtS-6EEfw-14" value="" style="endArrow=classic;html=1;rounded=0;exitX=1;exitY=0.5;exitDx=0;exitDy=0;entryX=0;entryY=0.5;entryDx=0;entryDy=0;" edge="1" parent="1" source="JLIKOMwXBY5YtS-6EEfw-12" target="JLIKOMwXBY5YtS-6EEfw-6">
          <mxGeometry width="50" height="50" relative="1" as="geometry">
            <mxPoint x="360" y="320" as="sourcePoint" />
            <mxPoint x="410" y="270" as="targetPoint" />
          </mxGeometry>
        </mxCell>
        <mxCell id="JLIKOMwXBY5YtS-6EEfw-15" value="" style="endArrow=classic;html=1;rounded=0;exitX=1;exitY=0.5;exitDx=0;exitDy=0;entryX=0;entryY=0.5;entryDx=0;entryDy=0;" edge="1" parent="1" source="JLIKOMwXBY5YtS-6EEfw-12" target="JLIKOMwXBY5YtS-6EEfw-5">
          <mxGeometry width="50" height="50" relative="1" as="geometry">
            <mxPoint x="360" y="320" as="sourcePoint" />
            <mxPoint x="410" y="270" as="targetPoint" />
          </mxGeometry>
        </mxCell>
        <mxCell id="JLIKOMwXBY5YtS-6EEfw-19" value="connecter" style="ellipse;whiteSpace=wrap;html=1;" vertex="1" parent="1">
          <mxGeometry x="550" y="50" width="120" height="80" as="geometry" />
        </mxCell>
        <mxCell id="JLIKOMwXBY5YtS-6EEfw-20" value="" style="endArrow=classic;html=1;rounded=0;exitX=1;exitY=0.5;exitDx=0;exitDy=0;entryX=0;entryY=0.5;entryDx=0;entryDy=0;" edge="1" parent="1" source="JLIKOMwXBY5YtS-6EEfw-6" target="JLIKOMwXBY5YtS-6EEfw-19">
          <mxGeometry width="50" height="50" relative="1" as="geometry">
            <mxPoint x="360" y="320" as="sourcePoint" />
            <mxPoint x="410" y="270" as="targetPoint" />
          </mxGeometry>
        </mxCell>
        <mxCell id="JLIKOMwXBY5YtS-6EEfw-21" value="" style="endArrow=classic;html=1;rounded=0;exitX=1;exitY=0.5;exitDx=0;exitDy=0;entryX=0;entryY=0.5;entryDx=0;entryDy=0;" edge="1" parent="1" source="JLIKOMwXBY5YtS-6EEfw-5" target="JLIKOMwXBY5YtS-6EEfw-19">
          <mxGeometry width="50" height="50" relative="1" as="geometry">
            <mxPoint x="360" y="320" as="sourcePoint" />
            <mxPoint x="410" y="270" as="targetPoint" />
          </mxGeometry>
        </mxCell>
        <mxCell id="JLIKOMwXBY5YtS-6EEfw-22" value="déconnection" style="ellipse;whiteSpace=wrap;html=1;" vertex="1" parent="1">
          <mxGeometry x="-100" y="250" width="120" height="80" as="geometry" />
        </mxCell>
        <mxCell id="JLIKOMwXBY5YtS-6EEfw-23" value="" style="endArrow=classic;html=1;rounded=0;entryX=1;entryY=0.5;entryDx=0;entryDy=0;exitX=0.5;exitY=0.5;exitDx=0;exitDy=0;exitPerimeter=0;" edge="1" parent="1" source="JLIKOMwXBY5YtS-6EEfw-1" target="JLIKOMwXBY5YtS-6EEfw-22">
          <mxGeometry width="50" height="50" relative="1" as="geometry">
            <mxPoint x="120" y="300" as="sourcePoint" />
            <mxPoint x="410" y="270" as="targetPoint" />
          </mxGeometry>
        </mxCell>
        <mxCell id="JLIKOMwXBY5YtS-6EEfw-26" value="afficher la liste de message" style="ellipse;whiteSpace=wrap;html=1;" vertex="1" parent="1">
          <mxGeometry x="810" y="150" width="120" height="80" as="geometry" />
        </mxCell>
        <mxCell id="JLIKOMwXBY5YtS-6EEfw-27" value="" style="endArrow=classic;html=1;rounded=0;exitX=1;exitY=0.5;exitDx=0;exitDy=0;entryX=0;entryY=0.5;entryDx=0;entryDy=0;" edge="1" parent="1" source="JLIKOMwXBY5YtS-6EEfw-19" target="JLIKOMwXBY5YtS-6EEfw-26">
          <mxGeometry width="50" height="50" relative="1" as="geometry">
            <mxPoint x="360" y="320" as="sourcePoint" />
            <mxPoint x="410" y="270" as="targetPoint" />
          </mxGeometry>
        </mxCell>
        <mxCell id="JLIKOMwXBY5YtS-6EEfw-28" value="ajouter ou poser une question" style="ellipse;whiteSpace=wrap;html=1;" vertex="1" parent="1">
          <mxGeometry x="810" y="260" width="120" height="80" as="geometry" />
        </mxCell>
        <mxCell id="JLIKOMwXBY5YtS-6EEfw-29" value="" style="endArrow=classic;html=1;rounded=0;exitX=1;exitY=0.5;exitDx=0;exitDy=0;entryX=0;entryY=0.5;entryDx=0;entryDy=0;" edge="1" parent="1" source="JLIKOMwXBY5YtS-6EEfw-19" target="JLIKOMwXBY5YtS-6EEfw-28">
          <mxGeometry width="50" height="50" relative="1" as="geometry">
            <mxPoint x="360" y="320" as="sourcePoint" />
            <mxPoint x="410" y="270" as="targetPoint" />
          </mxGeometry>
        </mxCell>
        <mxCell id="JLIKOMwXBY5YtS-6EEfw-30" value="Administrateur" style="shape=umlActor;verticalLabelPosition=bottom;verticalAlign=top;html=1;outlineConnect=0;" vertex="1" parent="1">
          <mxGeometry x="680" y="640" width="30" height="60" as="geometry" />
        </mxCell>
        <mxCell id="JLIKOMwXBY5YtS-6EEfw-31" value="Super Administrateur" style="shape=umlActor;verticalLabelPosition=bottom;verticalAlign=top;html=1;outlineConnect=0;" vertex="1" parent="1">
          <mxGeometry x="540" y="585" width="30" height="60" as="geometry" />
        </mxCell>
        <mxCell id="JLIKOMwXBY5YtS-6EEfw-32" value="répondre à une question" style="ellipse;whiteSpace=wrap;html=1;" vertex="1" parent="1">
          <mxGeometry x="810" y="40" width="120" height="80" as="geometry" />
        </mxCell>
        <mxCell id="JLIKOMwXBY5YtS-6EEfw-33" value="modifier un message (question et/ou réponse)" style="ellipse;whiteSpace=wrap;html=1;" vertex="1" parent="1">
          <mxGeometry x="890" y="360" width="140" height="90" as="geometry" />
        </mxCell>
        <mxCell id="JLIKOMwXBY5YtS-6EEfw-34" value="" style="endArrow=classic;html=1;rounded=0;exitX=0.5;exitY=0.5;exitDx=0;exitDy=0;exitPerimeter=0;entryX=0;entryY=0.5;entryDx=0;entryDy=0;" edge="1" parent="1" source="JLIKOMwXBY5YtS-6EEfw-31" target="JLIKOMwXBY5YtS-6EEfw-32">
          <mxGeometry width="50" height="50" relative="1" as="geometry">
            <mxPoint x="570" y="230" as="sourcePoint" />
            <mxPoint x="620" y="180" as="targetPoint" />
          </mxGeometry>
        </mxCell>
        <mxCell id="JLIKOMwXBY5YtS-6EEfw-35" value="" style="endArrow=classic;html=1;rounded=0;exitX=0.5;exitY=0.5;exitDx=0;exitDy=0;exitPerimeter=0;entryX=0;entryY=0.5;entryDx=0;entryDy=0;" edge="1" parent="1" source="JLIKOMwXBY5YtS-6EEfw-31" target="JLIKOMwXBY5YtS-6EEfw-28">
          <mxGeometry width="50" height="50" relative="1" as="geometry">
            <mxPoint x="570" y="230" as="sourcePoint" />
            <mxPoint x="620" y="180" as="targetPoint" />
          </mxGeometry>
        </mxCell>
        <mxCell id="JLIKOMwXBY5YtS-6EEfw-36" value="" style="endArrow=classic;html=1;rounded=0;exitX=0.5;exitY=0.5;exitDx=0;exitDy=0;exitPerimeter=0;entryX=0;entryY=0.5;entryDx=0;entryDy=0;" edge="1" parent="1" source="JLIKOMwXBY5YtS-6EEfw-30" target="JLIKOMwXBY5YtS-6EEfw-32">
          <mxGeometry width="50" height="50" relative="1" as="geometry">
            <mxPoint x="570" y="230" as="sourcePoint" />
            <mxPoint x="620" y="180" as="targetPoint" />
          </mxGeometry>
        </mxCell>
        <mxCell id="JLIKOMwXBY5YtS-6EEfw-37" value="" style="endArrow=classic;html=1;rounded=0;exitX=0.5;exitY=0.5;exitDx=0;exitDy=0;exitPerimeter=0;entryX=0;entryY=0.5;entryDx=0;entryDy=0;" edge="1" parent="1" source="JLIKOMwXBY5YtS-6EEfw-30" target="JLIKOMwXBY5YtS-6EEfw-28">
          <mxGeometry width="50" height="50" relative="1" as="geometry">
            <mxPoint x="570" y="230" as="sourcePoint" />
            <mxPoint x="620" y="180" as="targetPoint" />
          </mxGeometry>
        </mxCell>
        <mxCell id="JLIKOMwXBY5YtS-6EEfw-38" value="" style="endArrow=classic;html=1;rounded=0;exitX=0.5;exitY=0.5;exitDx=0;exitDy=0;exitPerimeter=0;entryX=0;entryY=0.5;entryDx=0;entryDy=0;" edge="1" parent="1" source="JLIKOMwXBY5YtS-6EEfw-30" target="JLIKOMwXBY5YtS-6EEfw-33">
          <mxGeometry relative="1" as="geometry">
            <mxPoint x="540" y="210" as="sourcePoint" />
            <mxPoint x="640" y="210" as="targetPoint" />
          </mxGeometry>
        </mxCell>
        <mxCell id="JLIKOMwXBY5YtS-6EEfw-39" value="&lt;div&gt;Seulement&amp;nbsp;&lt;/div&gt;&lt;div&gt;SA ligue.&lt;/div&gt;" style="edgeLabel;resizable=0;html=1;;align=center;verticalAlign=middle;" connectable="0" vertex="1" parent="JLIKOMwXBY5YtS-6EEfw-38">
          <mxGeometry relative="1" as="geometry" />
        </mxCell>
        <mxCell id="JLIKOMwXBY5YtS-6EEfw-40" value="" style="endArrow=classic;html=1;rounded=0;exitX=0.5;exitY=0.5;exitDx=0;exitDy=0;exitPerimeter=0;entryX=0;entryY=0.5;entryDx=0;entryDy=0;" edge="1" parent="1" source="JLIKOMwXBY5YtS-6EEfw-31" target="JLIKOMwXBY5YtS-6EEfw-33">
          <mxGeometry width="50" height="50" relative="1" as="geometry">
            <mxPoint x="570" y="230" as="sourcePoint" />
            <mxPoint x="620" y="180" as="targetPoint" />
          </mxGeometry>
        </mxCell>
        <mxCell id="JLIKOMwXBY5YtS-6EEfw-41" value="supprimer un message." style="ellipse;whiteSpace=wrap;html=1;" vertex="1" parent="1">
          <mxGeometry x="900" y="490" width="120" height="80" as="geometry" />
        </mxCell>
        <mxCell id="JLIKOMwXBY5YtS-6EEfw-42" value="" style="endArrow=classic;html=1;rounded=0;exitX=0.5;exitY=0.5;exitDx=0;exitDy=0;exitPerimeter=0;entryX=0;entryY=0.5;entryDx=0;entryDy=0;" edge="1" parent="1" source="JLIKOMwXBY5YtS-6EEfw-31" target="JLIKOMwXBY5YtS-6EEfw-41">
          <mxGeometry width="50" height="50" relative="1" as="geometry">
            <mxPoint x="750" y="70" as="sourcePoint" />
            <mxPoint x="800" y="20" as="targetPoint" />
          </mxGeometry>
        </mxCell>
        <mxCell id="JLIKOMwXBY5YtS-6EEfw-43" value="" style="endArrow=classic;html=1;rounded=0;exitX=0.5;exitY=0.5;exitDx=0;exitDy=0;exitPerimeter=0;entryX=0;entryY=0.5;entryDx=0;entryDy=0;" edge="1" parent="1" source="JLIKOMwXBY5YtS-6EEfw-30" target="JLIKOMwXBY5YtS-6EEfw-41">
          <mxGeometry relative="1" as="geometry">
            <mxPoint x="720" y="40" as="sourcePoint" />
            <mxPoint x="820" y="40" as="targetPoint" />
          </mxGeometry>
        </mxCell>
        <mxCell id="JLIKOMwXBY5YtS-6EEfw-44" value="&lt;div&gt;ne peut&amp;nbsp;&lt;/div&gt;&lt;div&gt;supprimer&amp;nbsp;&lt;/div&gt;&lt;div&gt;que les&amp;nbsp;&lt;/div&gt;&lt;div&gt;messages&amp;nbsp;&lt;/div&gt;&lt;div&gt;de SA ligue.&lt;/div&gt;" style="edgeLabel;resizable=0;html=1;;align=center;verticalAlign=middle;" connectable="0" vertex="1" parent="JLIKOMwXBY5YtS-6EEfw-43">
          <mxGeometry relative="1" as="geometry" />
        </mxCell>
        <mxCell id="JLIKOMwXBY5YtS-6EEfw-51" value="" style="endArrow=classic;html=1;rounded=0;exitX=1;exitY=0.5;exitDx=0;exitDy=0;entryX=0;entryY=0.5;entryDx=0;entryDy=0;" edge="1" parent="1" source="JLIKOMwXBY5YtS-6EEfw-2" target="JLIKOMwXBY5YtS-6EEfw-4">
          <mxGeometry relative="1" as="geometry">
            <mxPoint x="470" y="270" as="sourcePoint" />
            <mxPoint x="570" y="270" as="targetPoint" />
          </mxGeometry>
        </mxCell>
        <mxCell id="JLIKOMwXBY5YtS-6EEfw-52" value="une seule ligue." style="edgeLabel;resizable=0;html=1;;align=center;verticalAlign=middle;" connectable="0" vertex="1" parent="JLIKOMwXBY5YtS-6EEfw-51">
          <mxGeometry relative="1" as="geometry" />
        </mxCell>
        <mxCell id="JLIKOMwXBY5YtS-6EEfw-59" value="&lt;div&gt;s&#39;inscrire pour Administrateur et Super Administrateur &lt;br&gt;&lt;/div&gt;&lt;div&gt;(promotion)&lt;br&gt;&lt;/div&gt;" style="ellipse;whiteSpace=wrap;html=1;" vertex="1" parent="1">
          <mxGeometry x="540" y="260" width="140" height="90" as="geometry" />
        </mxCell>
        <mxCell id="JLIKOMwXBY5YtS-6EEfw-66" value="" style="endArrow=classic;html=1;rounded=0;exitX=1;exitY=0.5;exitDx=0;exitDy=0;entryX=0;entryY=0.5;entryDx=0;entryDy=0;" edge="1" parent="1" source="JLIKOMwXBY5YtS-6EEfw-6" target="JLIKOMwXBY5YtS-6EEfw-59">
          <mxGeometry width="50" height="50" relative="1" as="geometry">
            <mxPoint x="600" y="340" as="sourcePoint" />
            <mxPoint x="650" y="290" as="targetPoint" />
          </mxGeometry>
        </mxCell>
        <mxCell id="JLIKOMwXBY5YtS-6EEfw-67" value="" style="endArrow=classic;html=1;rounded=0;exitX=1;exitY=0.5;exitDx=0;exitDy=0;entryX=0;entryY=0.5;entryDx=0;entryDy=0;" edge="1" parent="1" source="JLIKOMwXBY5YtS-6EEfw-5" target="JLIKOMwXBY5YtS-6EEfw-59">
          <mxGeometry width="50" height="50" relative="1" as="geometry">
            <mxPoint x="600" y="340" as="sourcePoint" />
            <mxPoint x="650" y="290" as="targetPoint" />
          </mxGeometry>
        </mxCell>
        <mxCell id="JLIKOMwXBY5YtS-6EEfw-70" value="" style="endArrow=classic;html=1;rounded=0;exitX=0.5;exitY=1;exitDx=0;exitDy=0;entryX=0.5;entryY=0.5;entryDx=0;entryDy=0;entryPerimeter=0;" edge="1" parent="1" source="JLIKOMwXBY5YtS-6EEfw-59" target="JLIKOMwXBY5YtS-6EEfw-30">
          <mxGeometry width="50" height="50" relative="1" as="geometry">
            <mxPoint x="600" y="390" as="sourcePoint" />
            <mxPoint x="650" y="340" as="targetPoint" />
          </mxGeometry>
        </mxCell>
        <mxCell id="JLIKOMwXBY5YtS-6EEfw-71" value="" style="endArrow=classic;html=1;rounded=0;exitX=0.5;exitY=1;exitDx=0;exitDy=0;" edge="1" parent="1" source="JLIKOMwXBY5YtS-6EEfw-59">
          <mxGeometry width="50" height="50" relative="1" as="geometry">
            <mxPoint x="600" y="390" as="sourcePoint" />
            <mxPoint x="560" y="610" as="targetPoint" />
          </mxGeometry>
        </mxCell>
      </root>
    </mxGraphModel>
  </diagram>
</mxfile>
